<?xml version="1.0" standalone="no"?><!DOCTYPE svg PUBLIC "-//W3C//DTD SVG 1.1//EN" "http://www.w3.org/Graphics/SVG/1.1/DTD/svg11.dtd"><svg class="icon" width="200px" height="200.00px" viewBox="0 0 1024 1024" version="1.1" xmlns="http://www.w3.org/2000/svg"><path fill="#e6e6e6" d="M448.948148 593.825185h-276.859259c-24.272593 0-44.088889-19.816296-44.088889-44.088889V172.088889c0-24.272593 19.816296-44.088889 44.088889-44.088889h276.859259c24.272593 0 44.088889 19.816296 44.088889 44.088889v377.647407c0 24.272593-19.816296 44.088889-44.088889 44.088889zM172.088889 170.666667c-0.758519 0-1.422222 0.663704-1.422222 1.422222v377.647407c0 0.758519 0.663704 1.422222 1.422222 1.422223h276.859259c0.758519 0 1.422222-0.663704 1.422222-1.422223V172.088889c0-0.758519-0.663704-1.422222-1.422222-1.422222h-276.859259zM851.911111 896h-276.859259c-24.272593 0-44.088889-19.816296-44.088889-44.088889V474.358519c0-24.272593 19.816296-44.088889 44.088889-44.088889h276.859259c24.272593 0 44.088889 19.816296 44.088889 44.088889v377.647407c0 24.177778-19.816296 43.994074-44.088889 43.994074z m-276.859259-423.063704c-0.758519 0-1.422222 0.663704-1.422222 1.422223v377.647407c0 0.758519 0.663704 1.422222 1.422222 1.422222h276.859259c0.758519 0 1.422222-0.663704 1.422222-1.422222V474.358519c0-0.758519-0.663704-1.422222-1.422222-1.422223h-276.859259zM851.911111 392.343704h-276.859259c-24.272593 0-44.088889-19.816296-44.088889-44.088889V172.088889c0-24.272593 19.816296-44.088889 44.088889-44.088889h276.859259c24.272593 0 44.088889 19.816296 44.088889 44.088889v176.071111c0 24.367407-19.816296 44.183704-44.088889 44.183704zM575.051852 170.666667c-0.758519 0-1.422222 0.663704-1.422222 1.422222v176.071111c0 0.758519 0.663704 1.422222 1.422222 1.422222h276.859259c0.758519 0 1.422222-0.663704 1.422222-1.422222V172.088889c0-0.758519-0.663704-1.422222-1.422222-1.422222h-276.859259zM448.948148 896h-276.859259c-24.272593 0-44.088889-19.816296-44.088889-44.088889V675.84c0-24.272593 19.816296-44.088889 44.088889-44.088889h276.859259c24.272593 0 44.088889 19.816296 44.088889 44.088889v176.165926c0 24.177778-19.816296 43.994074-44.088889 43.994074z m-276.859259-221.582222c-0.758519 0-1.422222 0.663704-1.422222 1.422222v176.165926c0 0.758519 0.663704 1.422222 1.422222 1.422222h276.859259c0.758519 0 1.422222-0.663704 1.422222-1.422222V675.84c0-0.758519-0.663704-1.422222-1.422222-1.422222h-276.859259z" /></svg>