<?xml version="1.0" standalone="no"?><!DOCTYPE svg PUBLIC "-//W3C//DTD SVG 1.1//EN" "http://www.w3.org/Graphics/SVG/1.1/DTD/svg11.dtd"><svg class="icon" width="200px" height="200.00px" viewBox="0 0 1024 1024" version="1.1" xmlns="http://www.w3.org/2000/svg"><path fill="#e6e6e6" d="M302.545455 325.818182h349.090909a23.272727 23.272727 0 0 0 0-46.545455H302.545455a23.272727 23.272727 0 0 0 0 46.545455zM302.545455 465.454545h279.272727a23.272727 23.272727 0 0 0 0-46.545454H302.545455a23.272727 23.272727 0 0 0 0 46.545454zM465.454545 581.818182a23.272727 23.272727 0 0 0-23.272727-23.272727h-139.636363a23.272727 23.272727 0 0 0 0 46.545454h139.636363a23.272727 23.272727 0 0 0 23.272727-23.272727zM372.363636 698.181818h-69.818181a23.272727 23.272727 0 0 0 0 46.545455h69.818181a23.272727 23.272727 0 0 0 0-46.545455z"  /><path fill="#e6e6e6" d="M791.272727 605.090909V232.727273a93.090909 93.090909 0 0 0-93.090909-93.090909H279.272727a93.090909 93.090909 0 0 0-93.090909 93.090909v581.818182a93.090909 93.090909 0 0 0 93.090909 93.090909h261.352728A195.490909 195.490909 0 0 0 651.636364 942.545455 197.352727 197.352727 0 0 0 791.272727 605.090909zM279.272727 861.090909a46.545455 46.545455 0 0 1-46.545454-46.545454V232.727273a46.545455 46.545455 0 0 1 46.545454-46.545455h418.909091a46.545455 46.545455 0 0 1 46.545455 46.545455v337.687272a195.258182 195.258182 0 0 0-93.090909-23.272727A197.818182 197.818182 0 0 0 491.752727 861.090909z m372.363637 34.909091a151.04 151.04 0 1 1 151.272727-151.272727 150.341818 150.341818 0 0 1-151.272727 151.272727z"  /><path fill="#e6e6e6" d="M698.181818 756.363636h-46.545454V674.909091a23.272727 23.272727 0 0 0-46.545455 0v104.727273a23.272727 23.272727 0 0 0 23.272727 23.272727h69.818182a23.272727 23.272727 0 0 0 0-46.545455z"  /></svg>