<?xml version="1.0" standalone="no"?><!DOCTYPE svg PUBLIC "-//W3C//DTD SVG 1.1//EN" "http://www.w3.org/Graphics/SVG/1.1/DTD/svg11.dtd"><svg t="1588905277699" class="icon" viewBox="0 0 1024 1024" version="1.1" xmlns="http://www.w3.org/2000/svg" p-id="1205" xmlns:xlink="http://www.w3.org/1999/xlink" width="200" height="200"><defs><style type="text/css"></style></defs><path d="M533.333333 106.666667h-42.666666c-23.466667 0-42.666667-19.2-42.666667-42.666667V42.666667c0-23.466667 19.2-42.666667 42.666667-42.666667h42.666666c23.466667 0 42.666667 19.2 42.666667 42.666667v21.333333c0 23.466667-19.2 42.666667-42.666667 42.666667z" p-id="1206" fill="#ffffff"></path><path d="M938.666667 874.666667H85.333333V469.333333C85.333333 245.333333 268.8 61.866667 492.8 61.866667h38.4C755.2 61.866667 938.666667 245.333333 938.666667 469.333333v405.333334zM170.666667 789.333333h682.666666V469.333333c0-177.066667-145.066667-322.133333-322.133333-322.133333h-38.4C315.733333 147.2 170.666667 292.266667 170.666667 469.333333v320z" p-id="1207" fill="#ffffff"></path><path d="M981.333333 874.666667H42.666667c-23.466667 0-42.666667-19.2-42.666667-42.666667s19.2-42.666667 42.666667-42.666667h938.666666c23.466667 0 42.666667 19.2 42.666667 42.666667s-19.2 42.666667-42.666667 42.666667z" p-id="1208" fill="#ffffff"></path><path d="M512 1024c-106.666667 0-192-76.8-192-170.666667h85.333333c0 46.933333 46.933333 85.333333 106.666667 85.333334s106.666667-38.4 106.666667-85.333334h85.333333c0 93.866667-85.333333 170.666667-192 170.666667z" p-id="1209" fill="#ffffff"></path></svg>