<?xml version="1.0" standalone="no"?><!DOCTYPE svg PUBLIC "-//W3C//DTD SVG 1.1//EN" "http://www.w3.org/Graphics/SVG/1.1/DTD/svg11.dtd"><svg class="icon" width="200px" height="200.00px" viewBox="0 0 1024 1024" version="1.1" xmlns="http://www.w3.org/2000/svg"><path fill="#e6e6e6" d="M964.799522 472.074096h-34.067045l1.392052-97.137735a69.2049 69.2049 0 0 0-69.067224-69.143711H534.762354V214.161936h34.204721a42.373469 42.373469 0 0 0 42.358171-42.373469V42.526442A42.373469 42.373469 0 0 0 568.967075 0.152973h-129.338512A42.373469 42.373469 0 0 0 397.270391 42.526442v129.262025A42.373469 42.373469 0 0 0 439.628563 214.161936h34.204721v91.630714H160.820317a69.2049 69.2049 0 0 0-69.067225 69.143711v97.137735H59.0781a28.957753 28.957753 0 0 0-28.927159 28.911862v493.949208a28.850672 28.850672 0 0 0 28.927159 28.911861h126.049596a28.86597 28.86597 0 0 0 28.942456-28.911861V500.985958a28.957753 28.957753 0 0 0-28.942456-28.911862H152.054975l0.627188-80.00478a25.317 25.317 0 0 1 25.347595-25.240514h295.803526l0.688377 105.245294h-33.225694a28.97305 28.97305 0 0 0-28.973051 28.911862v493.949208a28.881267 28.881267 0 0 0 28.973051 28.911861h126.019002a28.881267 28.881267 0 0 0 28.957753-28.911861V500.985958a28.97305 28.97305 0 0 0-28.957753-28.911862h-32.124291l-0.382432-105.245294h311.100807a25.317 25.317 0 0 1 25.347595 25.240514v80.00478h-32.445534a28.957753 28.957753 0 0 0-28.942455 28.911862v493.949208a28.86597 28.86597 0 0 0 28.942455 28.911861h126.049597a28.86597 28.86597 0 0 0 28.942456-28.911861V500.985958a28.957753 28.957753 0 0 0-29.003645-28.911862z"  /></svg>