<?xml version="1.0" standalone="no"?><!DOCTYPE svg PUBLIC "-//W3C//DTD SVG 1.1//EN" "http://www.w3.org/Graphics/SVG/1.1/DTD/svg11.dtd"><svg class="icon" width="200px" height="200.00px" viewBox="0 0 1024 1024" version="1.1" xmlns="http://www.w3.org/2000/svg"><path fill="#e6e6e6" d="M544 704h-192a32 32 0 0 1-32-32v-96a32 32 0 0 1 64 0v64h160v-64a32 32 0 0 1 32-32h192a32 32 0 0 1 32 32v192a32 32 0 0 1-32 32h-192a32 32 0 0 1-32-32v-64z m-64-320v64a32 32 0 0 1-32 32H256a32 32 0 0 1-32-32V256a32 32 0 0 1 32-32h192a32 32 0 0 1 32 32v64h192a32 32 0 0 1 32 32v96a32 32 0 0 1-64 0v-64h-160z m-192 32h128V288H288v128z m320 320h128v-128h-128v128z" /></svg>