<?xml version="1.0" standalone="no"?><!DOCTYPE svg PUBLIC "-//W3C//DTD SVG 1.1//EN" "http://www.w3.org/Graphics/SVG/1.1/DTD/svg11.dtd"><svg class="icon" width="200px" height="200.00px" viewBox="0 0 1024 1024" version="1.1" xmlns="http://www.w3.org/2000/svg"><path fill="#e6e6e6" d="M935.597122 119.71223h-184.172662v-55.251798a29.467626 29.467626 0 0 0-58.935251 0v55.251798H331.510791v-55.251798a29.467626 29.467626 0 0 0-58.935251 0v55.251798H88.402878a88.402878 88.402878 0 0 0-88.402878 88.402878v692.489209a88.402878 88.402878 0 0 0 88.402878 88.402877h847.194244a88.402878 88.402878 0 0 0 88.402878-88.402877v-692.489209a88.402878 88.402878 0 0 0-88.402878-88.402878z m-847.194244 58.935252h184.172662v47.884892a29.467626 29.467626 0 0 0 58.935251 0v-47.884892h360.978418v47.884892a29.467626 29.467626 0 0 0 58.935251 0v-47.884892h184.172662a29.467626 29.467626 0 0 1 29.467626 29.467626v158.388489H58.935252v-158.388489a29.467626 29.467626 0 0 1 29.467626-29.467626z m847.194244 751.42446H88.402878a29.467626 29.467626 0 0 1-29.467626-29.467625v-475.165468h906.129496v475.165468a29.467626 29.467626 0 0 1-29.467626 29.467625z"  /><path fill="#e6e6e6" d="M740.44777 507.211511L481.501007 766.158273a30.204317 30.204317 0 0 1-41.69669 0L313.093525 639.447482a29.467626 29.467626 0 1 0-41.69669 41.623022L397.81295 807.854964a88.402878 88.402878 0 0 0 125.23741 0l258.946762-258.946763a29.467626 29.467626 0 0 0-41.623021-41.69669z"  /></svg>